<svg width="144" height="144" viewBox="0 0 144 144" fill="none" xmlns="http://www.w3.org/2000/svg">
<g clip-path="url(#clip0_4039_12853)">
<rect width="144" height="144" fill="#F23F43"/>
<path fill-rule="evenodd" clip-rule="evenodd" d="M0 63.0719V143.722C0.214 143.816 0.428 143.908 0.642 144H13.466C14.811 141.921 16.048 139.773 17.167 137.555C17.271 137.351 17.172 137.108 16.959 137.027C13.696 135.789 10.588 134.279 7.599 132.565C7.362 132.427 7.343 132.089 7.561 131.927C8.19 131.455 8.819 130.965 9.42 130.47C9.528 130.379 9.68 130.36 9.808 130.417C29.446 139.384 50.708 139.384 70.115 130.417C70.243 130.356 70.394 130.375 70.507 130.465C71.108 130.96 71.737 131.455 72.371 131.927C72.589 132.089 72.574 132.427 72.338 132.565C69.349 134.312 66.241 135.789 62.973 137.022C62.76 137.103 62.665 137.351 62.769 137.555C63.913 139.771 65.16 141.92 66.498 144H79.323C85.887 141.195 92.536 137.504 99.327 132.517C99.417 132.451 99.474 132.351 99.483 132.241C101.985 106.357 95.292 83.8719 81.741 63.9389C81.708 63.8729 81.651 63.8249 81.585 63.7969C73.937 60.2869 65.735 57.7019 57.159 56.2209C57.003 56.1919 56.847 56.2639 56.767 56.4059C55.712 58.2829 54.544 60.7299 53.725 62.6539C44.502 61.2729 35.326 61.2729 26.292 62.6539C25.473 60.6869 24.262 58.2829 23.203 56.4059C23.122 56.2679 22.966 56.1969 22.81 56.2209C14.839 57.5939 7.188 59.9259 0 63.0719ZM20.1 118.604C14.187 118.604 9.316 113.175 9.316 106.509C9.316 99.8429 14.093 94.4139 20.1 94.4139C26.154 94.4139 30.979 99.8899 30.884 106.509C30.884 113.175 26.107 118.604 20.1 118.604ZM59.974 118.604C54.061 118.604 49.189 113.175 49.189 106.509C49.189 99.8429 53.967 94.4139 59.974 94.4139C66.028 94.4139 70.853 99.8899 70.758 106.509C70.758 113.175 66.028 118.604 59.974 118.604Z" fill="black" fill-opacity="0.15"/>
<path d="M71.1213 42.8787C71.6839 43.4414 72 44.2044 72 45.0001V99.0001C72 99.7957 71.6839 100.559 71.1213 101.121C70.5587 101.684 69.7957 102 69 102H68.82C68.4036 102.003 67.9912 101.919 67.609 101.754C67.2268 101.588 66.8831 101.345 66.6 101.04L53.76 87.0001H45C44.2044 87.0001 43.4413 86.684 42.8787 86.1214C42.3161 85.5588 42 84.7957 42 84.0001V60.0001C42 59.2044 42.3161 58.4414 42.8787 57.8787C43.4413 57.3161 44.2044 57.0001 45 57.0001H53.76L66.6 42.9601C66.8831 42.6547 67.2268 42.4117 67.609 42.2464C67.9912 42.0812 68.4036 41.9973 68.82 42.0001H69C69.7957 42.0001 70.5587 42.3161 71.1213 42.8787Z" fill="white"/>
<path d="M78 58L102 82" stroke="white" stroke-width="8" stroke-linecap="round"/>
<path d="M102 58L78 82" stroke="white" stroke-width="8" stroke-linecap="round"/>
</g>
<defs>
<clipPath id="clip0_4039_12853">
<rect width="144" height="144" fill="white"/>
</clipPath>
</defs>
</svg>
