<svg width="48" height="48" viewBox="0 0 48 48" fill="none" xmlns="http://www.w3.org/2000/svg">
<path d="M45.4142 5.41421C46.1953 4.63316 46.1953 3.36683 45.4142 2.58579C44.6332 1.80474 43.3668 1.80474 42.5858 2.58579L2.58579 42.5858C1.80474 43.3668 1.80474 44.6332 2.58579 45.4142C3.36683 46.1953 4.63316 46.1953 5.41421 45.4142L45.4142 5.41421Z" fill="#F23F43"/>
<path d="M24.0022 3.20007C27.4855 3.20007 30.7691 4.0565 33.6536 5.57032L30.5453 8.70133C28.4962 7.8247 26.2721 7.36007 24.0002 7.36007C19.587 7.36007 15.3545 9.11321 12.2339 12.2338C9.11333 15.3544 7.3602 19.5869 7.3602 24.0001C7.35389 25.3925 7.45553 26.7833 7.6642 28.1601H11.2272L5.09582 34.336C3.75332 31.1388 3.2002 27.6524 3.2002 24.0001C3.2002 12.5121 12.5102 3.20007 24.0022 3.20007Z" fill="#F23F43"/>
<path d="M42.3241 14.1457L39.2197 17.2727C40.1475 19.3719 40.6402 21.6606 40.6402 24.0001C40.6402 25.4401 40.5442 26.8281 40.3362 28.1601H36.4802C34.5162 28.1601 32.6682 29.0861 31.4882 30.6561L27.3842 36.1261C26.9038 36.7666 26.5908 37.5169 26.4734 38.3089C26.3561 39.101 26.4381 39.9097 26.7122 40.6621C27.9302 44.0101 32.0862 45.9981 35.4022 43.5941C42.3862 38.5361 44.8022 31.6301 44.8022 24.0001C44.8022 20.4346 43.905 17.0787 42.3241 14.1457Z" fill="#F23F43"/>
<path d="M12.8899 43.7942L20.5662 36.0621L20.6142 36.1261C21.0946 36.7666 21.4076 37.5169 21.525 38.3089C21.6423 39.101 21.5602 39.9097 21.2862 40.6621C20.1058 43.912 16.1552 45.8804 12.8899 43.7942Z" fill="#F23F43"/>
</svg>
