<svg width="48" height="48" viewBox="0 0 48 48" fill="none" xmlns="http://www.w3.org/2000/svg">
<path d="M7.3602 24.0002C7.3602 19.587 9.11333 15.3545 12.2339 12.2339C15.3545 9.11333 19.587 7.3602 24.0002 7.3602C28.4134 7.3602 32.6458 9.11333 35.7665 12.2339C38.8871 15.3545 40.6402 19.587 40.6402 24.0002C40.6402 25.4402 40.5442 26.8282 40.3362 28.1602H36.4802C34.5162 28.1602 32.6682 29.0862 31.4882 30.6562L27.3842 36.1262C26.9038 36.7667 26.5908 37.517 26.4734 38.309C26.3561 39.1011 26.4381 39.9099 26.7122 40.6622C27.9302 44.0102 32.0862 45.9982 35.4022 43.5942C42.3862 38.5362 44.8022 31.6302 44.8022 24.0002C44.8022 12.5122 35.4882 3.2002 24.0022 3.2002C12.5102 3.2002 3.2002 12.5122 3.2002 24.0002C3.2002 31.6302 5.6142 38.5362 12.5962 43.5942C15.9142 45.9982 20.0702 44.0102 21.2862 40.6622C21.5602 39.9099 21.6423 39.1011 21.525 38.309C21.4076 37.517 21.0946 36.7667 20.6142 36.1262L16.5102 30.6562C15.9289 29.8817 15.1755 29.253 14.3095 28.8198C13.4435 28.3866 12.4885 28.1608 11.5202 28.1602H7.6642C7.45553 26.7835 7.35389 25.3926 7.3602 24.0002Z" fill="white"/>
</svg>
