<svg width="48" height="48" viewBox="0 0 48 48" fill="none" xmlns="http://www.w3.org/2000/svg">
<path d="M29.6569 6.26307C31.1571 7.76336 32 9.79819 32 11.9199V19.8399C32 21.9617 31.1571 23.9965 29.6569 25.4968C28.1566 26.9971 26.1217 27.8399 24 27.8399C21.8783 27.8399 19.8434 26.9971 18.3431 25.4968C16.8429 23.9965 16 21.9617 16 19.8399V11.9199C16 9.79819 16.8429 7.76336 18.3431 6.26307C19.8434 4.76278 21.8783 3.91992 24 3.91992C26.1217 3.91992 28.1566 4.76278 29.6569 6.26307Z" fill="white"/>
<path d="M12 19.8399C12 18.7353 11.1046 17.8399 10 17.8399C8.89543 17.8399 8 18.7353 8 19.8399C8 24.0834 9.68571 28.153 12.6863 31.1536C15.2115 33.6789 18.494 35.2728 22 35.7145V39.8399H18C17.4696 39.8399 16.9609 40.0506 16.5858 40.4257C16.2107 40.8008 16 41.3095 16 41.8399C16 42.3703 16.2107 42.879 16.5858 43.2541C16.9609 43.6292 17.4696 43.8399 18 43.8399H30C30.5304 43.8399 31.0391 43.6292 31.4142 43.2541C31.7893 42.879 32 42.3703 32 41.8399C32 41.3095 31.7893 40.8008 31.4142 40.4257C31.0391 40.0506 30.5304 39.8399 30 39.8399H26V35.7145C29.506 35.2728 32.7885 33.6789 35.3137 31.1536C38.3143 28.153 40 24.0834 40 19.8399C40 18.7353 39.1046 17.8399 38 17.8399C36.8954 17.8399 36 18.7353 36 19.8399C36 23.0225 34.7357 26.0747 32.4853 28.3252C30.2348 30.5756 27.1826 31.8399 24 31.8399C20.8174 31.8399 17.7652 30.5756 15.5147 28.3252C13.2643 26.0747 12 23.0225 12 19.8399Z" fill="white"/>
</svg>
