<svg width="48" height="48" viewBox="0 0 48 48" fill="none" xmlns="http://www.w3.org/2000/svg">
<path d="M45.4142 5.41421C46.1953 4.63316 46.1953 3.36683 45.4142 2.58579C44.6332 1.80474 43.3668 1.80474 42.5858 2.58579L2.58579 42.5858C1.80474 43.3668 1.80474 44.6332 2.58579 45.4142C3.36683 46.1953 4.63316 46.1953 5.41421 45.4142L45.4142 5.41421Z" fill="#F23F43"/>
<path d="M16.667 23.0506C16.6477 23.0065 16.6289 22.9623 16.6104 22.9178C16.208 21.9486 16.0005 20.9095 16 19.86V12.08C16 9.95829 16.8429 7.92345 18.3431 6.42316C19.8434 4.92287 21.8783 4.08002 24 4.08002C26.1217 4.08002 28.1566 4.92287 29.6569 6.42316C30.2581 7.02443 30.7538 7.71156 31.1319 8.45573L16.667 23.0506Z" fill="#F23F43"/>
<path d="M35.995 20.2057L38.2979 17.8821C39.2612 18.026 40 18.8567 40 19.86C40 21.9612 39.5862 24.0418 38.7821 25.983C37.978 27.9242 36.7994 29.688 35.3137 31.1738C33.828 32.6595 32.0641 33.838 30.1229 34.6421C28.8008 35.1898 27.4139 35.5564 26 35.7346V39.84H30C30.5304 39.84 31.0391 40.0507 31.4142 40.4258C31.7893 40.8009 32 41.3096 32 41.84C32 42.3705 31.7893 42.8792 31.4142 43.2542C31.0391 43.6293 30.5304 43.84 30 43.84H18C17.4696 43.84 16.9609 43.6293 16.5858 43.2542C16.2107 42.8792 16 42.3705 16 41.84C16 41.3096 16.2107 40.8009 16.5858 40.4258C16.9609 40.0507 17.4696 39.84 18 39.84H22V35.7346C21.5976 35.6839 21.1974 35.6179 20.8003 35.5368L24.4528 31.8515C25.8742 31.7978 27.2759 31.4918 28.5922 30.9466C30.0481 30.3435 31.371 29.4596 32.4853 28.3453C33.5996 27.231 34.4835 25.9082 35.0866 24.4522C35.6455 23.1029 35.953 21.6637 35.995 20.2057Z" fill="#F23F43"/>
<path d="M10.8276 28.9423L13.7101 26.034C13.4066 25.5282 13.1402 24.9996 12.9134 24.4522C12.3104 22.9963 12 21.4359 12 19.86C12 18.7555 11.1046 17.86 10 17.86C8.89543 17.86 8 18.7555 8 19.86C8 21.9612 8.41385 24.0418 9.21793 25.983C9.64989 27.0258 10.1899 28.0175 10.8276 28.9423Z" fill="#F23F43"/>
</svg>
